<svg width="256" height="256" viewBox="0 0 256 256" fill="none" xmlns="http://www.w3.org/2000/svg">
<rect width="256" height="256" rx="56" fill="#1A1F71"/>
<path d="M62 166c24.5 12.9 47.2 17.3 65.3 17.3 27 0 45.8-8.4 62.7-19.9 2.2-1.5 5.3-.9 6.8 1.4 1.5 2.2.9 5.3-1.4 6.8-18.9 13.2-40.2 22.6-68.1 22.6-20.6 0-45.3-4.9-71.5-19.1-2.5-1.3-3.5-4.3-2.3-6.9 1.3-2.6 4.4-3.6 7-2.2Zm4.9-18.4c2.5-3.5 8.7-9.2 11.2-11.3 14.2-12.2 34.9-20.6 52.8-20.6 25.7 0 44.1 9.9 59.6 22 3 2.3 1.5 7.2-2.2 7.6-3.4.3-8.1-4.7-18.8-8.7-8.3-3.1-19.8-5.7-31-5.7-22.3 0-43.1 7.6-63.7 21.4-3.4 2.4-5.3 2.6-7.7.2-1.9-1.9-2.7-3.6.2-7.6Z" fill="#fff"/>
<path d="M126.6 83.5c0-3 2.1-5.1 4.9-5.1h15.9c12.4 0 18.3 6 18.3 16.2 0 10.1-5.9 16-18.3 16h-8.8v13.9c0 3-2.1 5.1-4.9 5.1-3 0-5.1-2.1-5.1-5.1V83.5Zm18.8 19c6.6 0 9-2.5 9-7.9 0-5.5-2.4-8-9-8h-8.8v15.9h8.8ZM92.8 78.4c2.8 0 5.1 2.3 5.1 5.1v38.9c0 3-2.3 5.1-5.1 5.1-2.8 0-5.1-2.1-5.1-5.1V83.5c0-2.8 2.3-5.1 5.1-5.1Zm0-15c3.2 0 5.8 2.6 5.8 5.8 0 3.1-2.6 5.8-5.8 5.8-3.1 0-5.8-2.7-5.8-5.8 0-3.2 2.7-5.8 5.8-5.8Z" fill="#fff"/>
</svg>
