<svg width="256" height="256" viewBox="0 0 256 256" fill="none" xmlns="http://www.w3.org/2000/svg">
<rect width="256" height="256" rx="56" fill="url(#g)"/>
<path d="M170.6 58.7c.5 2.1.2 4.3-.8 6.2-.9 1.9-2.5 3.4-4.5 4.2l-38.3 14.4c-3.3 1.3-5.5 4.4-5.5 8v74.5c0 11.6-9.9 20.8-22.2 20.8-7.7 0-12.4-3.6-14.8-8.7-2.6-5.5-.6-12.7 3.2-16.7 4.6-4.9 11.5-6.9 17.6-4.9 1.4.5 2.9-.5 2.9-2v-64c0-5.3 3.3-10.1 8.3-11.9l45.6-16.4c4-1.4 8.4.7 9.7 4.7ZM141 118c0-4.6 2.8-8.7 7-10.3l34.4-12.5c3.5-1.3 7.4.6 8.7 4.1.3.8.5 1.6.5 2.5v57.6c0 11.6-10 20.8-22.2 20.8-7.7 0-12.4-3.6-14.9-8.7-2.6-5.5-.6-12.7 3.3-16.7 4.6-4.8 11.4-6.8 17.5-4.8 1.4.5 2.9-.5 2.9-2v-34.5c0-1.4-1.4-2.3-2.7-1.9l-24.4 8.8c-7.5 2.7-10.1 9-10.1 17.8V118Z" fill="#fff"/>
<defs>
<linearGradient id="g" x1="46" y1="46" x2="210" y2="210" gradientUnits="userSpaceOnUse">
<stop stop-color="#FA2E70"/>
<stop offset="1" stop-color="#8B46F8"/>
</linearGradient>
</defs>
</svg>
