<svg xmlns="http://www.w3.org/2000/svg" viewBox="0 0 64 64">
  <defs>
    <linearGradient id="dpGradient" x1="0%" y1="0%" x2="0%" y2="100%">
      <stop offset="0%" stop-color="#0b2c7f"/>
      <stop offset="100%" stop-color="#041955"/>
    </linearGradient>
  </defs>
  <rect width="64" height="64" rx="14" fill="url(#dpGradient)"/>
  <path d="M8 38c6-11 20-20 36-20 5.8 0 11.2 1.2 16 3.3" fill="none" stroke="#7dc8ff" stroke-width="3" stroke-linecap="round"/>
  <path d="M45 30h4v-4h3v4h4v3h-4v4h-3v-4h-4z" fill="#9ee0ff"/>
  <path d="M20.5 44.2c-1.5 0-2.5-.6-2.5-1.8 0-2.5 3.7-3.7 7-3.7h3.3c-.2-1-.5-1.9-.9-2.7-.7-1.4-1.8-2.9-3.4-4.7 3.1.4 5.6 2 7.2 4.5 1 1.5 1.7 3.3 2.1 5.6H37v2.8h-3.3c-.5 3.2-2 5.2-4.5 6-3 .9-5.2-.8-5.2-2.2 0-.9.6-1.9 1.5-2.4-.5.1-1 .1-1.5.1zm3.2-1.5c.6.6 1.4.9 2.4.7 1-.3 1.7-1.2 2-2.1h-1.1c-1.4 0-2.6.3-3.3 1.4z" fill="#ffffff" opacity="0.85"/>
</svg>
