<svg width="256" height="256" viewBox="0 0 256 256" fill="none" xmlns="http://www.w3.org/2000/svg">
<rect width="256" height="256" rx="56" fill="#1DB954"/>
<path d="M193 160.5c-1.6 2.6-4.9 3.4-7.5 1.8-28.4-17.4-64.2-21.3-106.1-11.3-3 0.7-6-1.2-6.7-4.2-.7-3 1.2-6 4.2-6.7 45.5-10.8 84.6-6.4 115.6 12.3 2.6 1.6 3.4 4.9 1.8 7.5Zm9.6-23.6c-2 3.3-6.3 4.3-9.6 2.3-32.6-20-82.3-25.8-120.8-13.6-3.7 1.1-7.6-1-8.7-4.7-1.1-3.7 1-7.6 4.7-8.7 42.4-13.3 95.6-7 131.7 15 3.3 2 4.3 6.3 2.3 9.6Zm.9-25.5C162.8 81.1 105 77.9 67.6 89.6c-4.4 1.4-9.1-1.1-10.4-5.5-1.4-4.4 1.1-9.1 5.5-10.4 42.7-13.2 106.4-9.6 145.6 15.4 3.9 2.5 5.1 7.7 2.6 11.6-2.5 3.9-7.7 5.1-11.6 2.6Z" fill="#fff"/>
</svg>
