<svg xmlns="http://www.w3.org/2000/svg" width="1200" height="675" viewBox="0 0 1200 675" fill="none">
  <defs>
    <linearGradient id="cixSup" x1="0" y1="0" x2="1" y2="1">
      <stop offset="0%" stop-color="#4f46e5"/>
      <stop offset="100%" stop-color="#0ea5e9"/>
    </linearGradient>
    <linearGradient id="cixGlow" x1="0" y1="0" x2="1" y2="0">
      <stop offset="0%" stop-color="#a5b4fc" stop-opacity="0.4"/>
      <stop offset="100%" stop-color="#38bdf8" stop-opacity="0.12"/>
    </linearGradient>
  </defs>

  <rect width="1200" height="675" rx="28" fill="url(#cixSup)"/>
  <rect x="90" y="110" width="1020" height="455" rx="26" fill="url(#cixGlow)" opacity="0.6"/>
  <circle cx="1040" cy="190" r="120" fill="#312e81" opacity="0.35"/>
  <circle cx="1020" cy="520" r="120" fill="#0a2340" opacity="0.35"/>

  <!-- Icono IA -->
  <g transform="translate(120 220)">
    <rect x="0" y="0" width="200" height="140" rx="26" fill="#0b1220" opacity="0.65" stroke="#94a3ff" stroke-width="3"/>
    <path d="M34 54h132" stroke="#38bdf8" stroke-width="6" stroke-linecap="round"/>
    <path d="M60 82h80" stroke="#22d3ee" stroke-width="6" stroke-linecap="round"/>
    <circle cx="64" cy="38" r="6" fill="#a5b4fc"/>
    <circle cx="90" cy="38" r="6" fill="#38bdf8"/>
    <circle cx="116" cy="38" r="6" fill="#22d3ee"/>
    <polygon points="164,92 190,110 164,128" fill="#38bdf8" opacity="0.85"/>
  </g>

  <!-- Texto -->
  <text x="260" y="264" font-size="66" font-family="Inter, Arial, sans-serif" fill="#ffffff" font-weight="800">CulturIAx</text>
  <text x="260" y="320" font-size="30" font-family="Inter, Arial, sans-serif" fill="#e0f2fe" font-weight="700">Tu curador IA 24/7</text>
  <text x="260" y="362" font-size="24" font-family="Inter, Arial, sans-serif" fill="#dbeafe" opacity="0.9">Pide una recomendacion y descubre algo nuevo al instante</text>

  <!-- CTA -->
  <rect x="260" y="404" rx="18" ry="18" width="360" height="82" fill="#0b1220" opacity="0.85" stroke="#a5b4fc" stroke-width="2"/>
  <text x="440" y="454" font-size="28" font-family="Inter, Arial, sans-serif" fill="#e0e7ff" font-weight="800" text-anchor="middle">Hablar con CulturIAx</text>

  <!-- Extras -->
  <text x="260" y="514" font-size="18" font-family="Inter, Arial, sans-serif" fill="#cbd5e1" opacity="0.92">Recomendaciones cruzadas de peliculas, series, anime, musica y mas.</text>
</svg>
