<svg xmlns="http://www.w3.org/2000/svg" width="1200" height="675" viewBox="0 0 1200 675" fill="none">
  <defs>
    <linearGradient id="spSup" x1="0" y1="0" x2="1" y2="1">
      <stop offset="0%" stop-color="#1ed760"/>
      <stop offset="100%" stop-color="#064e23"/>
    </linearGradient>
    <linearGradient id="spGlow" x1="0" y1="0" x2="1" y2="0">
      <stop offset="0%" stop-color="#b5ffce" stop-opacity="0.4"/>
      <stop offset="100%" stop-color="#1ed760" stop-opacity="0.08"/>
    </linearGradient>
  </defs>

  <rect width="1200" height="675" rx="28" fill="url(#spSup)"/>
  <rect x="90" y="110" width="1020" height="455" rx="26" fill="url(#spGlow)" opacity="0.5"/>
  <circle cx="1040" cy="180" r="120" fill="#0a3820" opacity="0.35"/>
  <circle cx="1020" cy="530" r="110" fill="#052512" opacity="0.35"/>

  <!-- Icono Spotify -->
  <g transform="translate(115 220)">
    <circle cx="65" cy="65" r="65" fill="#ffffff" opacity="0.96"/>
    <path d="M38 54c21-12 49-12 70 0" fill="none" stroke="#1ed760" stroke-width="7" stroke-linecap="round"/>
    <path d="M45 72c17-9 39-9 56 0" fill="none" stroke="#1ed760" stroke-width="6" stroke-linecap="round"/>
    <path d="M50 90c13-7 29-7 42 0" fill="none" stroke="#1ed760" stroke-width="5" stroke-linecap="round"/>
  </g>

  <!-- Texto -->
  <text x="250" y="264" font-size="66" font-family="Inter, Arial, sans-serif" fill="#ffffff" font-weight="800">Spotify Premium</text>
  <text x="250" y="320" font-size="30" font-family="Inter, Arial, sans-serif" fill="#ecffe6" font-weight="700">Musica sin anuncios y descargas offline</text>
  <text x="250" y="362" font-size="24" font-family="Inter, Arial, sans-serif" fill="#d9fbe0" opacity="0.9">Salta de cancion en cancion sin limites</text>

  <!-- CTA -->
  <rect x="250" y="404" rx="18" ry="18" width="310" height="82" fill="#022f18" opacity="0.75" stroke="#b5ffce" stroke-width="2"/>
  <text x="405" y="454" font-size="28" font-family="Inter, Arial, sans-serif" fill="#b5ffce" font-weight="800" text-anchor="middle">Hazte Premium</text>
</svg>
