<svg xmlns="http://www.w3.org/2000/svg" viewBox="0 0 64 64" role="img" aria-label="CulturaX icon">
  <defs>
    <linearGradient id="cxGrad" x1="0" y1="0" x2="1" y2="1">
      <stop offset="0%" stop-color="#22d3ee"/>
      <stop offset="100%" stop-color="#6366f1"/>
    </linearGradient>
  </defs>
  <rect width="64" height="64" rx="14" fill="#0b1220"/>
  <rect x="6" y="6" width="52" height="52" rx="12" fill="url(#cxGrad)" opacity="0.15"/>
  <path d="M18 20c4.5-5 10-8 17-8 5.5 0 10.6 2.1 14.3 6.1l-4.2 3.5C42.2 18.4 38.8 17 35 17c-4.7 0-8.6 2-11.9 6.2C20 26.8 18.7 30 18.7 33.8c0 3.7 1.3 7 3.8 9.8 3.1 3.5 6.9 5.2 11.4 5.2 3.8 0 7.3-1.4 10.3-4.2l4.2 3.5C43.8 52.3 39.6 54 34.9 54c-6.6 0-12.1-2.5-16.4-7.4-3.5-3.9-5.3-8.7-5.3-14.1 0-5.7 1.8-10.5 5.5-14.5Z" fill="#e0f2fe" opacity="0.9"/>
  <path d="M25 21h6l5.2 8.6L41.4 21H47l-7.7 11.4L48 44h-6l-6-9.2-5.8 9.2H24l8.8-11.6L25 21Z" fill="#e0f2fe"/>
</svg>
